<svg width="236" height="236" viewBox="0 0 236 236" fill="none" xmlns="http://www.w3.org/2000/svg">
<path d="M115.853 0.127571C103.042 1.74543 91.321 6.76409 81.6799 14.8534C74.6141 20.7635 70.0907 26.4095 65.3362 35.4233C64.5768 36.876 63.7844 38.1637 63.5863 38.2958C63.3882 38.3948 62.5627 38.593 61.7373 38.725C60.9119 38.8241 58.5346 39.3524 56.4545 39.9137C39.1533 44.371 23.9983 57.1488 16.6684 73.4594C15.1496 76.8933 13.1356 83.3977 12.4422 87.2607C11.7818 90.8266 11.8809 102.35 12.6073 106.246C13.3337 110.274 15.5128 116.91 17.1967 120.245C21.8852 129.589 29.3471 137.778 37.8326 142.829C39.4175 143.787 40.9363 144.678 41.1674 144.843C41.4976 145.041 41.6297 147.386 41.6627 155.772C41.7287 165.974 41.6957 166.437 41.1014 166.8C36.7761 169.276 34.8611 174.922 36.9412 179.016C37.8657 180.799 40.2429 183.111 42.0919 184.002C43.5447 184.695 46.7474 184.794 48.7284 184.233C50.8746 183.606 53.2518 181.526 54.3084 179.314C55.0678 177.762 55.2329 176.969 55.2329 175.087C55.2329 172.248 54.4735 170.63 51.9311 167.989L50.1482 166.107V149.466V132.792L47.5728 130.844C43.7098 127.839 43.5447 127.707 41.2334 125.396C35.3893 119.552 31.5923 112.585 29.8094 104.397C29.05 100.831 29.05 93.1709 29.8094 89.572C32.3187 77.9498 39.2524 68.0776 48.9926 62.2665C56.8177 57.611 62.6948 56.0592 72.6661 56.0592H78.4772L79.5337 52.6914C81.911 45.0314 85.9061 38.3618 91.387 32.947C95.2831 29.0839 97.9575 27.1689 103.207 24.4945C107.169 22.4804 110.372 21.3908 114.73 20.5324C118.593 19.773 127.112 19.773 130.942 20.4994C143.852 23.0417 155.573 31.6263 162.507 43.6776C164.917 47.9039 166.271 51.7669 167.624 58.3704L167.856 59.5261L171.653 60.0543C176.473 60.7477 179.313 61.4741 182.879 62.8938C190.175 65.8654 196.317 70.8841 200.51 77.4545C201.864 79.6007 202.392 80.5912 203.845 83.959C205.429 87.5249 206.552 95.1519 206.156 99.4772C205.429 107.633 202.755 114.665 198.067 120.707C195.161 124.504 192.52 126.849 187.468 130.183C185.157 131.702 183.209 133.188 183.077 133.485C182.978 133.782 182.879 141.277 182.879 150.159V166.305L181.624 167.196C176.671 170.762 175.945 177.266 180.006 181.526C182.383 184.002 183.836 184.629 187.171 184.596C189.713 184.596 191.1 184.035 193.18 182.219C197.67 178.257 197.538 172.347 192.883 167.757L191.133 166.04L191.199 155.871L191.298 145.702L193.774 144.414C200.213 141.112 205.661 137.117 208.962 133.254C209.953 132.098 210.844 131.108 210.943 131.009C211.042 130.91 211.802 129.952 212.66 128.863C217.316 122.722 220.75 115.161 222.566 107.071C223.193 104.232 223.292 102.779 223.292 96.8358C223.292 88.9777 222.896 86.5344 220.518 79.4026C216.655 67.9125 208.335 57.6441 197.901 51.4698C194.27 49.3567 192.255 48.4322 187.831 46.9794C185.751 46.286 183.869 45.5927 183.638 45.4276C183.407 45.2625 182.945 44.2059 182.581 43.0833C181.525 39.9467 177.926 32.8149 175.615 29.315C165.841 14.5232 149.828 3.85855 132.857 0.886974C129.027 0.226624 118.825 -0.235621 115.853 0.127571Z" fill="#4C4474"/>
<path d="M123.381 35.5884C119.353 36.2818 114.929 39.5835 113.278 43.0834L112.386 44.9984L112.287 56.5215C112.188 69.4644 112.287 70.2238 114.466 72.6341C116.514 74.9123 117.735 75.3085 122.787 75.5396C126.353 75.6717 127.442 75.8368 128.268 76.332C130.018 77.3886 130.942 80.2611 129.985 81.5818C129.588 82.0771 127.112 82.1431 98.3539 82.2091L67.1524 82.3082L65.0063 83.3647C62.2328 84.7185 60.5159 86.4354 59.3273 88.9447C56.983 93.9303 57.7424 98.6849 61.4404 102.383C62.3318 103.274 63.8837 104.364 64.9402 104.859C66.7892 105.718 67.0203 105.751 74.9115 105.916L83.0008 106.081L83.8262 107.633C86.0384 111.694 87.7223 112.849 91.5193 112.849C93.7975 112.849 94.0617 112.783 95.4484 111.727C96.7031 110.736 97.0332 110.241 97.6936 108.26C98.3539 106.18 98.3869 105.784 98.0238 104.265C97.4955 102.086 95.5474 99.6094 93.6654 98.6849C92.2787 98.0245 91.7174 97.9915 82.9348 97.9915C71.8409 97.9915 70.9164 97.8924 69.6287 96.6048C67.6807 94.6567 68.209 91.6521 70.6192 90.8267C71.4777 90.5626 82.7367 90.4635 113.575 90.4305C136.588 90.4305 155.672 90.2984 156.002 90.1994C156.366 90.0673 157.125 89.506 157.719 88.9777C159.7 87.0627 158.941 83.7279 156.267 82.6053C155.441 82.2421 153.295 82.1431 147.748 82.1431C143.687 82.1431 140.088 82.044 139.791 81.945C139.494 81.8129 138.536 80.2941 137.645 78.5442C134.739 72.7331 131.834 70.4879 126.254 69.8606C121.565 69.2993 121.532 69.2993 120.74 68.1767C119.98 67.1201 119.98 67.0211 119.98 57.0168V46.9134L120.938 45.5267C122.16 43.7438 123.48 43.0504 125.626 43.0504C126.98 43.0504 127.574 43.2155 128.565 43.9749C130.711 45.6257 131.041 46.4842 131.041 50.6774C131.041 54.7386 131.272 55.6961 132.56 56.8847C134.079 58.3045 137.017 57.8752 138.206 56.0923C138.932 54.9697 139.197 49.2577 138.635 46.3852C137.942 42.6872 136.06 39.8807 132.89 37.8336C129.919 35.9186 126.353 35.0601 123.381 35.5884Z" fill="#4C4474"/>
<path d="M96.0434 47.9039C94.4586 48.4321 91.9162 51.0075 91.6521 52.3942C91.1898 54.6064 91.3879 56.8846 92.1803 58.4034C93.1379 60.2854 93.8312 61.474 94.0954 61.6722C94.5906 62.0684 94.7227 63.4221 94.3925 64.5777C93.2699 68.2096 91.9492 69.9265 90.3314 69.9265C88.7465 69.9595 86.7325 70.4878 86.4353 70.9831C86.1051 71.4783 86.0391 73.5915 86.3363 74.3509C86.5013 74.7801 87.1287 74.8792 89.9021 74.8792C95.251 74.8792 98.0244 73.8886 100.798 71.0491C102.944 68.8369 104.595 64.2475 104.001 62.1344C103.803 61.441 103.968 60.5826 104.562 59.0308C105.685 55.9601 105.519 52.7244 104.1 50.7103C102.35 48.201 98.8169 46.9794 96.0434 47.9039Z" fill="#4C4474"/>
<path d="M146.824 57.0167C145.206 57.5449 142.96 59.3939 142.036 60.9127C141.31 62.2004 141.145 62.8277 141.145 64.9409C141.145 68.0775 141.904 69.6954 144.248 71.5444C147.913 74.4499 152.668 73.5254 155.606 69.3322C157.455 66.7238 157.125 62.4315 154.913 59.9882C152.635 57.4789 149.267 56.2242 146.824 57.0167Z" fill="#4C4474"/>
<path d="M63.7495 70.2568C56.9479 71.1813 51.5661 74.417 46.8116 80.4262C42.6183 85.676 41.0005 90.7937 41.3307 97.6613C41.5618 102.086 42.024 104.001 43.7409 107.368C47.2408 114.434 52.7547 118.991 60.2827 121.17C62.825 121.929 63.0892 121.929 82.1733 121.929C100.993 121.929 101.522 121.896 102.644 121.269C103.271 120.906 104.064 120.014 104.427 119.321C104.955 118.264 104.988 117.868 104.691 116.845C104.196 115.293 102.842 114.005 101.158 113.543C100.333 113.345 93.2342 113.213 81.645 113.18C70.9474 113.18 62.726 113.047 61.6694 112.849C57.1791 112.024 51.9953 108.128 50.0143 104.1C48.5615 101.128 47.7361 97.2651 47.9342 94.5247C48.1323 91.6522 48.9247 88.6146 50.0473 86.1713C51.2359 83.6289 55.7923 79.1055 58.8629 77.4216C62.9241 75.2095 63.4524 75.1104 71.2775 74.9453C75.3717 74.8793 78.5414 74.6812 78.8055 74.4831C79.3998 73.9548 79.3008 71.0823 78.6404 70.554C78.0131 69.9927 67.1503 69.7946 63.7495 70.2568Z" fill="#4C4474"/>
<path d="M176.77 75.0112C175.35 75.6055 173.699 77.6196 173.435 79.0393C172.808 82.4071 174.161 85.4447 177.1 87.2607C178.586 88.1852 178.949 88.2512 181.722 88.2512C183.604 88.2512 184.958 88.4163 185.255 88.6804C186.114 89.3738 187.5 92.5104 187.864 94.5906C188.623 98.9489 186.84 104.529 183.637 107.632C181.854 109.382 178.982 111.165 176.307 112.255C174.491 112.981 174.095 113.014 156.959 113.179C140.946 113.344 139.361 113.411 138.37 113.939C134.87 115.854 135.498 120.74 139.394 121.797C140.186 121.995 146.361 122.094 156.893 122.028C175.383 121.896 175.152 121.929 180.963 118.891C186.147 116.25 191.066 110.703 192.981 105.42C195.193 99.3121 194.764 92.0812 191.859 86.1051C190.835 84.058 189.911 82.9024 186.51 79.5016C183.307 76.2658 182.085 75.2753 181.029 74.9451C179.312 74.4499 178.024 74.4499 176.77 75.0112Z" fill="#4C4474"/>
<path d="M119.322 98.3217C114.336 99.3452 111.562 102.35 111.562 106.741C111.562 110.373 112.817 112.255 115.954 113.312C118.265 114.104 120.873 113.873 123.317 112.684C125.628 111.562 126.123 110.901 126.387 108.656C126.519 107.6 126.718 106.543 126.85 106.312C127.081 106.015 131.934 105.916 149.302 105.916C162.905 105.916 171.952 105.784 172.678 105.586C173.999 105.222 175.418 103.902 175.914 102.515C176.475 101.062 175.649 99.4443 173.9 98.6519C172.546 98.0245 171.555 97.9915 146.561 98.0245C132.297 98.0575 120.048 98.1896 119.322 98.3217Z" fill="#4C4474"/>
<path d="M66.7893 139.56C64.5441 140.947 64.6762 139.494 64.6762 163.036V184.365L62.6621 186.148C59.8556 188.591 58.9311 190.638 59.1292 193.907C59.3934 197.704 60.9782 200.247 64.1809 201.93C65.6007 202.69 66.261 202.822 68.6383 202.822C71.1146 202.822 71.6099 202.723 72.9305 201.93C75.2418 200.511 76.1993 199.52 77.1568 197.473C78.9067 193.643 78.0483 189.714 74.6144 186.214L72.9305 184.464V163.036V141.574L71.841 140.386C70.4542 138.867 68.4072 138.537 66.7893 139.56Z" fill="#4C4474"/>
<path d="M89.7366 140.221L88.4489 141.508V169.87V198.266L87.1942 199.124C84.5859 200.841 82.5388 205.232 83.001 208.204C83.2982 210.152 84.4538 212.463 85.8735 213.85C89.3074 217.251 95.4816 217.449 98.7834 214.279C101.953 211.241 102.911 206.619 101.128 203.053C100.632 202.03 99.5098 200.676 98.4862 199.751L96.7033 198.199V169.937C96.7033 141.773 96.7033 141.674 96.0099 140.782C95.0854 139.626 93.6987 138.933 92.2129 138.933C91.2554 138.933 90.7601 139.197 89.7366 140.221Z" fill="#4C4474"/>
<path d="M114.268 139.593C112.287 140.815 112.221 141.244 112.221 154.583V166.602L111.429 167.13C107.434 169.705 105.816 174.988 107.731 179.049C108.589 180.931 111 183.309 112.816 184.068C114.334 184.728 117.966 184.794 119.485 184.167C121.268 183.474 123.414 181.592 124.669 179.644C125.659 178.059 125.792 177.629 125.825 175.417C125.858 172.281 124.867 170.102 122.292 167.724L120.476 166.04V153.791V141.574L119.386 140.386C117.999 138.867 115.952 138.537 114.268 139.593Z" fill="#4C4474"/>
<path d="M138.436 139.263C138.073 139.395 137.347 139.99 136.884 140.584L135.993 141.64V170.003V198.365L134.705 199.157C130.809 201.633 129.257 206.751 131.139 210.911C132.757 214.51 135.927 216.524 139.922 216.524C142.597 216.524 144.512 215.765 146.294 214.015C148.375 211.968 149.002 210.581 149.134 207.576C149.299 204.407 148.705 202.921 146.129 200.114L144.247 198.1V169.903C144.247 141.773 144.247 141.674 143.554 140.782C142.299 139.164 140.186 138.537 138.436 139.263Z" fill="#4C4474"/>
<path d="M161.878 139.56C159.633 140.914 159.765 139.494 159.765 162.937V184.167L157.85 186.082C155.374 188.525 154.383 190.605 154.35 193.412C154.317 195.987 155.242 198.232 157.058 200.114C159.105 202.261 160.492 202.822 163.727 202.822C166.171 202.822 166.732 202.723 168.02 201.93C171.652 199.784 173.468 196.648 173.236 192.917C173.071 190.308 172.246 188.69 169.935 186.445L168.02 184.629V163.3V142.004L167.26 140.881C165.94 138.9 163.793 138.372 161.878 139.56Z" fill="#4C4474"/>
<path d="M114.499 197.242C112.484 198.53 112.385 198.992 112.286 208.864L112.187 217.878L110.503 219.397C108.225 221.543 106.971 224.151 106.938 226.628C106.938 229.599 109.15 233.165 112.121 234.915C114.3 236.17 117.998 236.368 120.409 235.344C122.588 234.42 124.734 232.075 125.559 229.764C127.012 225.637 125.79 222.038 121.795 218.703L120.64 217.746L120.475 208.402L120.31 199.025L119.286 198.001C117.998 196.714 115.852 196.383 114.499 197.242Z" fill="#4C4474"/>
</svg>
